<svg width="121" height="25" viewBox="0 0 121 25" fill="none" xmlns="http://www.w3.org/2000/svg">
<path d="M14.8952 17.0725V8.81646C14.8952 7.23946 15.2612 5.99646 15.9932 5.08646C16.7262 4.17646 17.6432 3.72146 18.7432 3.72146C20.9012 3.72146 21.9802 5.29846 21.9802 8.45246V17.0725H25.7622V7.49246C25.7622 5.07746 25.2622 3.27246 24.2592 2.07546C23.2572 0.878456 21.8262 0.280456 19.9652 0.280456C18.7432 0.280456 17.6252 0.514456 16.6132 0.983456C15.6069 1.44685 14.7283 2.14799 14.0532 3.02646H13.9872C13.0072 1.19546 11.3672 0.280456 9.06524 0.280456C8.09624 0.280456 7.16324 0.497456 6.26624 0.933456C5.35456 1.38073 4.55153 2.02166 3.91324 2.81146H3.86324V0.528456H0.0812378V17.0555H3.86324V8.81646C3.86324 7.23946 4.23524 5.99646 4.97824 5.08646C5.72124 4.17646 6.67124 3.72146 7.82724 3.72146C10.0172 3.72146 11.1132 5.29846 11.1132 8.45246V17.0725H14.8952ZM35.9962 17.3205C38.2422 17.3205 39.9932 16.4935 41.2482 14.8385H41.2982V17.0555H44.9142V0.528456H41.1322V2.51346H41.0662C39.8112 1.02446 38.1112 0.280456 35.9632 0.280456C34.9015 0.272916 33.8494 0.483356 32.8723 0.898753C31.8951 1.31415 31.0136 1.92567 30.2822 2.69546C29.5772 3.44546 29.0222 4.35546 28.6142 5.42546C28.2016 6.52503 27.9945 7.69105 28.0032 8.86546C28.0032 10.1235 28.2062 11.2815 28.6132 12.3405C29.0212 13.3995 29.5772 14.2925 30.2822 15.0205C30.9993 15.7569 31.8629 16.3346 32.8172 16.7165C33.8275 17.1239 34.9079 17.3291 35.9972 17.3205H35.9962ZM36.5912 13.8795C35.1922 13.8795 34.0532 13.4135 33.1722 12.4815C32.2922 11.5495 31.8512 10.3495 31.8512 8.88246C31.8512 7.32746 32.3052 6.07846 33.2132 5.13546C34.1222 4.19246 35.2532 3.72146 36.6072 3.72146C37.9502 3.72146 39.0652 4.21446 39.9522 5.20146C40.8382 6.18946 41.2822 7.41646 41.2822 8.88246C41.2822 10.3495 40.8272 11.5495 39.9192 12.4815C39.0102 13.4135 37.9012 13.8795 36.5912 13.8795ZM63.7032 17.0725V7.32746C63.7032 4.93446 63.1672 3.16146 62.0932 2.00846C61.0212 0.856456 59.5362 0.280456 57.6432 0.280456C56.5902 0.274751 55.5482 0.494686 54.5872 0.925456C53.6313 1.35435 52.7846 1.99358 52.1102 2.79546H52.0602V0.527456H48.2782V17.0545H52.0602V8.75046C52.0602 7.16246 52.4482 5.92746 53.2242 5.04446C54.0012 4.16246 55.0382 3.72146 56.3372 3.72146C56.9322 3.72146 57.4412 3.79846 57.8652 3.95246C58.2892 4.10746 58.6612 4.35846 58.9802 4.70546C59.3002 5.05346 59.5362 5.52446 59.6902 6.12046C59.8442 6.71546 59.9212 7.44346 59.9212 8.30346V17.0725H63.7032ZM73.9212 17.3205C76.1672 17.3205 77.9172 16.4935 79.1732 14.8385H79.2232V17.0555H82.8392V0.528456H79.0572V2.51346H78.9912C77.7362 1.02446 76.0352 0.280456 73.8882 0.280456C72.8263 0.272779 71.7741 0.483152 70.7967 0.898553C69.8194 1.31395 68.9377 1.92554 68.2062 2.69546C67.5022 3.44546 66.9462 4.35546 66.5382 5.42546C66.126 6.52509 65.9192 7.69111 65.9282 8.86546C65.9282 10.1235 66.1312 11.2815 66.5382 12.3405C66.9462 13.3995 67.5022 14.2925 68.2062 15.0205C68.9236 15.757 69.7876 16.3348 70.7422 16.7165C71.7522 17.1238 72.8323 17.329 73.9212 17.3205ZM74.5152 13.8795C73.1172 13.8795 71.9772 13.4135 71.0972 12.4815C70.2162 11.5495 69.7752 10.3495 69.7752 8.88246C69.7752 7.32746 70.2302 6.07846 71.1382 5.13546C72.0462 4.19246 73.1782 3.72146 74.5322 3.72146C75.8752 3.72146 76.9902 4.21446 77.8762 5.20146C78.7622 6.18946 79.2062 7.41646 79.2062 8.88246C79.2062 10.3495 78.7512 11.5495 77.8432 12.4815C76.9352 13.4135 75.8252 13.8795 74.5152 13.8795ZM93.5852 24.0045C94.7852 24.0045 95.8592 23.8645 96.8052 23.5825C97.7522 23.3015 98.5482 22.9095 99.1922 22.4075C99.8399 21.9016 100.384 21.2755 100.794 20.5635C101.223 19.8222 101.532 19.018 101.71 18.1805C101.898 17.3205 101.991 16.3775 101.991 15.3515V0.528456H98.2092V2.26546H98.1432C97.4656 1.61746 96.6657 1.11093 95.7902 0.775456C94.9077 0.43449 93.9694 0.260863 93.0232 0.263456C91.5152 0.263456 90.1612 0.621456 88.9612 1.33846C87.7612 2.05546 86.8272 3.05146 86.1612 4.32546C85.4952 5.59846 85.1622 7.03046 85.1622 8.61846C85.1622 10.2285 85.5122 11.6565 86.2112 12.9035C86.9102 14.1495 87.8712 15.1065 89.0932 15.7735C90.3152 16.4405 91.6912 16.7745 93.2222 16.7745C95.2692 16.7745 96.9382 16.1015 98.2262 14.7565H98.2922V16.5095C98.2922 17.6795 97.8622 18.6495 97.0042 19.4215C96.1442 20.1935 94.9342 20.5795 93.3702 20.5795C92.3022 20.5795 91.3642 20.4475 90.5542 20.1825C89.7452 19.9175 88.8122 19.5045 87.7552 18.9425L86.8632 22.2835C87.7882 22.8355 88.8292 23.2595 89.9852 23.5575C91.1412 23.8555 92.3412 24.0045 93.5852 24.0045ZM93.7172 13.2845C92.3522 13.2845 91.2262 12.8505 90.3402 11.9845C89.4532 11.1195 89.0102 9.95846 89.0102 8.50246C89.0102 7.10246 89.4452 5.96046 90.3152 5.07746C91.1852 4.19546 92.3192 3.75446 93.7172 3.75446C95.0492 3.75446 96.1592 4.18946 97.0452 5.06146C97.9312 5.93246 98.3752 7.06346 98.3752 8.45246C98.3752 9.85346 97.9422 11.0085 97.0782 11.9185C96.2142 12.8285 95.0932 13.2835 93.7172 13.2835V13.2845ZM112.803 17.3205C114.345 17.3205 115.702 17.0395 116.874 16.4765C118.047 15.9145 119.007 15.1535 119.756 14.1935L117.114 11.9275C116.079 13.2285 114.708 13.8795 113.001 13.8795C111.791 13.8795 110.764 13.5425 109.921 12.8695C109.079 12.1975 108.537 11.2765 108.294 10.1075H120.318C120.384 9.71046 120.417 9.20746 120.417 8.60146C120.417 7.00246 120.092 5.57446 119.442 4.31646C118.812 3.07938 117.837 2.05107 116.635 1.35546C115.413 0.638456 114.003 0.280456 112.407 0.280456C111.314 0.272266 110.23 0.483076 109.219 0.900456C108.229 1.31446 107.375 1.89046 106.659 2.62946C105.944 3.36846 105.382 4.26746 104.975 5.32546C104.568 6.38546 104.364 7.53746 104.364 8.78346C104.364 10.4715 104.733 11.9685 105.47 13.2755C106.208 14.5825 107.216 15.5835 108.493 16.2785C109.77 16.9735 111.207 17.3205 112.803 17.3205ZM116.618 7.04646H108.361C108.625 5.98746 109.137 5.16846 109.896 4.58946C110.656 4.01046 111.559 3.72146 112.605 3.72146C113.662 3.72146 114.535 4.01946 115.223 4.61446C115.911 5.21046 116.376 6.02046 116.618 7.04646Z" fill="white"/>
</svg>
